<?xml version="1.0" encoding="iso-8859-1"?>
<!-- Generator: Adobe Illustrator 16.0.0, SVG Export Plug-In . SVG Version: 6.00 Build 0)  -->
<!DOCTYPE svg PUBLIC "-//W3C//DTD SVG 1.1//EN" "http://www.w3.org/Graphics/SVG/1.1/DTD/svg11.dtd">
<svg version="1.1" id="Capa_1" xmlns="http://www.w3.org/2000/svg" xmlns:xlink="http://www.w3.org/1999/xlink" x="0px" y="0px"
	 width="78.829px" height="78.83px" viewBox="0 0 78.829 78.83" style="enable-background:new 0 0 78.829 78.83;"
	 xml:space="preserve">
<g>
	<path d="M32.641,36.788h6.158v5.737h-6.158v6.157h-5.737v-6.157h-6.158v-5.737h6.158V30.63h5.736L32.641,36.788L32.641,36.788z
		 M75.227,43.363c0,0.469,0.381,0.848,0.849,0.848h2.754v4.347c-0.235-0.069-0.483-0.108-0.741-0.108c-0.597,0-1.146,0.2-1.59,0.534
		v7.409c0.443,0.333,0.993,0.533,1.59,0.533c0.258,0,0.506-0.038,0.741-0.106v1.804c0,1.754-1.423,3.178-3.179,3.178h-1
		c-0.48-5.17-4.828-9.219-10.125-9.219S54.881,56.628,54.4,61.8h-1H23.476c-0.481-5.17-4.83-9.219-10.126-9.219
		c-5.295,0-9.644,4.047-10.125,9.219H3.179C1.423,61.8,0,60.376,0,58.623V23.975c0-1.756,1.423-3.179,3.179-3.179h55.625
		c0.252,0,0.498,0.032,0.734,0.088c0.506-0.057,0.914-0.088,1.172-0.088l14.938,13.509c1.757,0,3.18,1.423,3.18,3.179v5.033h-2.754
		C75.605,42.516,75.227,42.895,75.227,43.363z M43.018,39.656c0-7.314-5.931-13.244-13.246-13.244
		c-7.313,0-13.243,5.93-13.243,13.244c0,7.314,5.931,13.244,13.243,13.244C37.087,52.9,43.018,46.97,43.018,39.656z M61.664,41.298
		h-4.661v1.006h4.661V41.298z M73.715,37.352L58.143,23.684c-0.184-0.182-0.457-0.236-0.693-0.138
		c-0.238,0.098-0.393,0.331-0.393,0.588v13.667c0,0.351,0.283,0.635,0.635,0.635h15.574c0.258,0,0.488-0.155,0.588-0.392
		C73.951,37.807,73.896,37.533,73.715,37.352z M52.043,19.365h3.35c0.289,0,0.524-0.234,0.524-0.524v-3.349
		c0-0.289-0.235-0.524-0.524-0.524h-3.35c-0.289,0-0.523,0.235-0.523,0.524v3.349C51.52,19.131,51.754,19.365,52.043,19.365z
		 M47.335,17.644h2.796c0.264,0,0.477-0.213,0.477-0.477s-0.213-0.477-0.477-0.477h-2.796c-0.264,0-0.478,0.213-0.478,0.477
		C46.857,17.43,47.071,17.644,47.335,17.644z M50.215,14.16c0.094,0.093,0.217,0.14,0.338,0.14s0.243-0.047,0.336-0.14
		c0.188-0.186,0.188-0.488,0-0.674l-1.978-1.977c-0.187-0.187-0.487-0.187-0.674,0s-0.187,0.488,0,0.674L50.215,14.16z
		 M57.26,17.167c0,0.263,0.213,0.477,0.477,0.477h2.797c0.263,0,0.477-0.213,0.477-0.477s-0.214-0.477-0.477-0.477h-2.797
		C57.473,16.69,57.26,16.903,57.26,17.167z M56.871,14.141c0.121,0,0.244-0.046,0.336-0.14l1.979-1.977
		c0.187-0.186,0.187-0.488,0-0.674c-0.188-0.186-0.488-0.186-0.676,0l-1.977,1.978c-0.186,0.186-0.186,0.488,0,0.674
		C56.627,14.094,56.749,14.141,56.871,14.141z M53.877,13.311c0.264,0,0.477-0.213,0.477-0.477v-2.797
		c0-0.263-0.213-0.477-0.477-0.477c-0.263,0-0.477,0.213-0.477,0.477v2.797C53.4,13.097,53.614,13.311,53.877,13.311z
		 M20.502,61.798c0,4.125-3.345,7.471-7.47,7.471s-7.47-3.346-7.47-7.471s3.345-7.469,7.47-7.469S20.502,57.673,20.502,61.798z
		 M16.37,61.798c0-1.84-1.498-3.336-3.338-3.336c-1.84,0-3.337,1.496-3.337,3.336c0,1.841,1.497,3.338,3.337,3.338
		C14.872,65.136,16.37,63.64,16.37,61.798z M72.198,61.798c0,4.125-3.345,7.471-7.472,7.471c-4.125,0-7.469-3.346-7.469-7.471
		s3.344-7.469,7.469-7.469C68.854,54.33,72.198,57.673,72.198,61.798z M68.064,61.798c0-1.84-1.496-3.336-3.338-3.336
		c-1.838,0-3.336,1.496-3.336,3.336c0,1.841,1.498,3.338,3.336,3.338C66.568,65.137,68.064,63.64,68.064,61.798z"/>
</g>
<g>
</g>
<g>
</g>
<g>
</g>
<g>
</g>
<g>
</g>
<g>
</g>
<g>
</g>
<g>
</g>
<g>
</g>
<g>
</g>
<g>
</g>
<g>
</g>
<g>
</g>
<g>
</g>
<g>
</g>
</svg>
